<?xml version="1.0" encoding="UTF-8"?>
<svg width="107px" height="107px" viewBox="0 0 107 107" version="1.1" xmlns="http://www.w3.org/2000/svg" xmlns:xlink="http://www.w3.org/1999/xlink">
    <title>Group</title>
    <g id="Page-1" stroke="none" stroke-width="1" fill="none" fill-rule="evenodd">
        <g id="Group">
            <circle id="Oval" fill="#647687" cx="53.5" cy="53.5" r="53.5"></circle>
            <path d="M53.3239583,24.0100316 C41.2823958,24.3668703 32,34.7525753 32,46.6619249 L32,76.5593428 C32,78.1747459 33.9742708,78.9824474 35.1292708,77.8405636 L37.9846875,75.7414459 C38.7478125,75.1806994 39.8180208,75.2894502 40.449375,75.9917994 L45.3707292,81.46899 C46.086875,82.1770033 47.2476042,82.1770033 47.96375,81.46899 L52.6295833,76.2750047 C53.3594792,75.4627719 54.6416667,75.4627719 55.3704167,76.2750047 L60.03625,81.46899 C60.7523958,82.1770033 61.913125,82.1770033 62.6292708,81.46899 L67.550625,75.9917994 C68.1819792,75.2894502 69.2521875,75.1795666 70.0153125,75.7414459 L72.8707292,77.8405636 C74.0257292,78.9824474 76,78.1736131 76,76.5593428 L76,45.7500038 C76,33.5155345 65.7826042,23.6407319 53.3239583,24.0100316 Z M46.6666667,49.3750318 C44.6419792,49.3750318 43,47.7516989 43,45.7500038 C43,43.7483087 44.6419792,42.1249759 46.6666667,42.1249759 C48.6913542,42.1249759 50.3333333,43.7483087 50.3333333,45.7500038 C50.3333333,47.7516989 48.6913542,49.3750318 46.6666667,49.3750318 Z M61.3333333,49.3750318 C59.3086458,49.3750318 57.6666667,47.7516989 57.6666667,45.7500038 C57.6666667,43.7483087 59.3086458,42.1249759 61.3333333,42.1249759 C63.3580208,42.1249759 65,43.7483087 65,45.7500038 C65,47.7516989 63.3580208,49.3750318 61.3333333,49.3750318 Z" id="Shape" fill="#AABBCA" fill-rule="nonzero"></path>
        </g>
    </g>
</svg>